<?xml version="1.0" encoding="utf-8"?>
<svg xmlns="http://www.w3.org/2000/svg" viewBox="0 0 32 32" fill="none">
  <style>
    .primary { fill: #87C527; }
  </style>
  <g class="primary">
    <!-- Bagian Atas (Garis Kepala & Mata) -->
    <path fill-rule="evenodd" clip-rule="evenodd" d="M12.59 3.88C13.6 3.32 14.76 3 16 3s2.4 0.32 3.41 0.88l0.74-0.74c0.2-0.2 0.52-0.2 0.71 0 0.2 0.2 0.2 0.52 0 0.71l-0.59 0.59C21.93 5.73 23 7.74 23 10H9c0-2.26 1.07-4.27 2.74-5.55L11.15 3.85c-0.2-0.2-0.2-0.52 0-0.71 0.2-0.2 0.52-0.2 0.71 0l0.74 0.74ZM14 7c0 0.55-0.45 1-1 1s-1-0.45-1-1 0.45-1 1-1 1 0.45 1 1ZM19 8c0.55 0 1-0.45 1-1s-0.45-1-1-1-1 0.45-1 1 0.45 1 1 1Z"/>
    
    <!-- Pilar Kiri -->
    <path d="M5 12.5c0-0.83 0.67-1.5 1.5-1.5S8 11.67 8 12.5v6c0 0.83-0.67 1.5-1.5 1.5S5 19.33 5 18.5v-6Z"/>

    <!-- Badan & Pilar Tengah -->
    <path d="M12 24v3.5c0 0.83 0.67 1.5 1.5 1.5s1.5-0.67 1.5-1.5V24h2v3.5c0 0.83 0.67 1.5 1.5 1.5s1.5-0.67 1.5-1.5V24h1c1.1 0 2-0.9 2-2V11H9v11c0 1.1 0.9 2 2 2h1Z"/>
    
    <!-- Pilar Kanan -->
    <path d="M24 12.5c0-0.83 0.67-1.5 1.5-1.5s1.5 0.67 1.5 1.5v6c0 0.83-0.67 1.5-1.5 1.5s-1.5-0.67-1.5-1.5v-6Z"/>
  </g>
</svg>
