<?xml version="1.0" encoding="utf-8"?>
<svg width="800px" height="800px" viewBox="0 0 24 24" xmlns="http://www.w3.org/2000/svg">
  <g fill="none">
    <path fill="#8CC5E7" d="M21.468 3.206c.714 1.473-1.454 1.631-1.343 2.289.204 1.186.065 2.947-.093 4.68-.269 2.938 1.927 9.971-2.65 12.797-.862.538-2.91.834-4.93.881h-.01c-2.02-.047-4.346-.344-5.208-.881-4.568-2.826-2.372-9.86-2.632-12.797-.167-1.733-.306-3.494-.093-4.68.111-.657-2.057-.806-1.343-2.289C3.77 1.937 5.28 3.058 5.66 2.66 7.597.649 9.95.111 11.803.065h1.02c1.844.093 4.198.593 6.144 2.594.38.398 1.881-.723 2.502.547zM11.432 10.907c-.083.037-.222.945.204.992.287.028 1.075.121 1.26 0 .362-.232.325-.788.12-.927-.343-.223-1.492-.112-1.584-.065zM9.08 4.105c-.954-.111-2.557.779-2.798 2.669-.26 1.965 2.057 3.911 4.281 1.965 1.195-1.047 1.612-4.272-1.483-4.634zM15.528 4.105c-3.095.361-2.678 3.586-1.483 4.633 2.224 1.946 4.54-.001 4.281-1.965-.232-1.89-1.835-2.78-2.798-2.668z"/>
    <path fill="#B8937F" d="M12.313 8.988c.584-.083 1.983.584 1.89 1.371-.112.918-3.605 1.038-3.79-.055-.112-.667.416-1.093 1.9-1.316zM20.198 16.374c-.287-.01-.472-.39-.472-.622 0-.417.056-.908.362-1.121.63-.436 1.13 1.75.11 1.743zM4.418 16.374c-1.02.01-.52-2.177.11-1.743.306.213.362.704.362 1.121 0 .232-.185.612-.472.622zM18.262 23.092c.185.269.194.454-.103.593-1.13.519-2.14-.176-1.76-.37.806-.408 1.306-1.047 1.863-.223zM6.354 23.185c.556-.825 1.056-.186 1.862.222.38.195-.63.89-1.76.371-.297-.14-.287-.325-.102-.593z"/>
    <path fill="#000000" d="M19.735 3.429c.047-.195.528-.288.797.046.324.398-.473.945-.51.723-.093-.602-.343-.574-.287-.769zM4.881 3.429c.056.195-.194.167-.287.769-.037.222-.834-.325-.51-.723.269-.334.75-.241.797-.046zM15.741 7.941a1.056 1.056 0 1 1 0-2.113 1.056 1.056 0 0 1 0 2.113zm-.278-1.177a.334.334 0 1 0 0-.668.334.334 0 0 0 0 .668zM11.358 9.433c.112-.426.501-.565.816-.574.807-.019 1.113.416 1.141.759.056.584-2.205.723-1.957-.185zM8.875 7.941a1.056 1.056 0 1 1 0-2.113 1.056 1.056 0 0 1 0 2.113zm.278-1.177a.334.334 0 1 0 0-.668.334.334 0 0 0 0 .668z"/>
  </g>
</svg>