<?xml version="1.0" encoding="utf-8"?>
<svg xmlns="http://www.w3.org/2000/svg" viewBox="0 0 32 32" fill="none">
  <style>
    .flame { fill:#E76F00; }
    .steam { fill:#5382A1; }
  </style>
  <g>
    <!-- Flame Part -->
    <path class="flame" d="M16.05 8.44C22.64 3.33 19.26 0 19.26 0c0.5 5.29-5.45 6.54-7.04 10.17-1.09 2.48 0.75 4.65 3.83 7.39-0.27-0.61-0.69-1.2-1.12-1.79-1.45-2.03-2.96-4.15 1.05-7.32z"/>
    <path class="flame" d="M17.1 18.68s1.98-1.6 0.41-3.38c-5.32-6.03 5.81-8.76 5.81-8.76-6.8 3.28-5.79 5.22-4.08 7.58 1.83 2.53-2.14 4.56-2.14 4.56z"/>

    <!-- Steam Part -->
    <path class="steam" d="M22.94 23.45c6.11-3.12 3.29-6.12 1.32-5.71-0.48 0.1-0.7 0.19-0.7 0.19s0.18-0.28 0.52-0.4c3.9-1.35 6.9 5 1.26 7.08 0 0-0.1-0.08-0.2-0.14z"/>
    <path class="steam" d="M10.23 19.5c-3.82-0.5 2.1-1.88 2.1-1.88s-2.3-0.15-5.12 1.19c-3.34 1.59 8.26 2.31 14.27 0.76 0.62-0.42 1.49-0.78 1.49-0.78s-2.46 0.43-4.91 0.63c-2.99 0.25-6.2 0.3-7.82 0.09z"/>
    <path class="steam" d="M11.69 22.48c-2.13-0.22-0.73-1.23-0.73-1.23-5.51 1.8 3.07 3.84 10.77 1.62-0.82-0.28-1.34-0.8-1.34-0.8-3.76 0.71-5.93 0.69-8.7 0.41z"/>
    <path class="steam" d="M12.61 25.7c-2.13-0.24-0.88-1.2-0.88-1.2-5 1.38 3.04 4.21 9.41 1.53-1.04-0.4-1.79-0.86-1.79-0.86-2.84 0.53-4.16 0.57-6.74 0.28z"/>
    <path class="steam" d="M25.94 27.34s0.92 0.75-1.01 1.32c-3.68 1.1-15.3 1.43-18.53 0.04-1.16-0.5 1.02-1.19 1.7-1.33 0.71-0.15 1.12-0.13 1.12-0.13-1.29-0.9-8.35 1.76-3.58 2.52 12.99 2.07 23.68-0.97 22.31-2.26z"/>
    <path class="steam" d="M28 28.97c-0.21 2.73-9.21 3.3-15.07 2.93-3.82-0.24-4.59-0.84-4.6-0.85 3.66 0.59 9.83 0.7 14.83-0.22 4.43-0.82 4.84-1.85 4.84-1.85z"/>
  </g>
</svg>
