<?xml version="1.0" encoding="UTF-8"?>
<svg width="800px" height="800px" viewBox="0 -101.5 512 512" version="1.1" xmlns="http://www.w3.org/2000/svg" xmlns:xlink="http://www.w3.org/1999/xlink" preserveAspectRatio="xMidYMid">
    <g>
        <path d="M120.81,80.56h96.57v7.68h-87.72v57.77h82.49v7.68h-82.49v63.42h88.72v7.68h-97.57V80.56ZM226.03,80.56h10.26l45.47,63.42L328.23,80.56,391.44,0,287.59,150.65l53.52,74.13h-10.66l-48.69-67.46-48.88,67.46h-10.46l54.04-74.13L226.03,80.56ZM344.93,88.24v-7.68h110.05v7.68h-50.7v136.54h-8.85V88.24h-50.5ZM0,80.56h11.07l152.58,228.32-63.05-84.11L9.25,91.47l-0.4,133.31H0V80.56ZM454.08,214.79c-1.81,0-3.16-1.4-3.16-3.21s1.35-3.21,3.16-3.21c1.83,0,3.17,1.4,3.17,3.21S455.91,214.79,454.08,214.79ZM462.78,206.33h4.74c0.06,2.57,1.93,4.3,4.69,4.3,3.08,0,4.82-1.85,4.82-5.33v-21.99h4.82v22.01c0,6.25-3.62,9.83-9.6,9.83C466.64,215.17,462.78,211.68,462.78,206.33ZM488.17,206.05h4.78c0.41,2.95,3.29,4.87,7.45,4.87,3.88,0,6.73-2.01,6.73-4.76,0-2.37-1.81-3.79-5.92-4.76l-4.01-0.97c-5.62-1.32-8.18-4.04-8.18-8.61,0-5.54,4.52-9.23,11.3-9.23,6.31,0,10.91,3.69,11.19,9.24h-4.69c-0.45-2.87-2.94-4.66-6.57-4.66-3.81,0-6.35,1.83-6.35,4.64,0,2.22,1.64,3.49,5.69,4.44l3.42,0.84c6.37,1.49,9,4.08,9,8.76,0,6.12-4.61,9.88-11.47,9.88C493.14,215.17,488.51,211.62,488.17,206.05Z" fill="#000000" fill-rule="nonzero"/>
    </g>
</svg>

