<?xml version="1.0" encoding="utf-8"?>
<svg xmlns="http://www.w3.org/2000/svg" viewBox="0 0 32 32">
  <title>Custom Logo</title>
  <defs>
    <linearGradient id="gradient1" x1="12.4809" y1="2" x2="12.4809" y2="22.7407" gradientUnits="userSpaceOnUse">
      <stop stop-color="#327EBD"/>
      <stop offset="1" stop-color="#1565A7"/>
    </linearGradient>
    <linearGradient id="gradient2" x1="19.519" y1="9.25928" x2="19.519" y2="30" gradientUnits="userSpaceOnUse">
      <stop stop-color="#FFDA4B"/>
      <stop offset="1" stop-color="#F9C600"/>
    </linearGradient>
  </defs>

  <!-- Bagian Atas -->
  <path fill-rule="evenodd" clip-rule="evenodd" 
    d="M13.0164 2C10.8193 2 9.03825 3.72453 9.03825 5.85185V8.51852H15.9235V9.25926H5.97814C3.78107 9.25926 2 10.9838 2 13.1111V18.8889C2 21.0162 3.78107 22.7407 5.97814 22.7407H8.27322V19.4815C8.27322 17.3542 10.0543 15.6296 12.2514 15.6296H19.5956C21.4547 15.6296 22.9617 14.1704 22.9617 12.3704V5.85185C22.9617 3.72453 21.1807 2 18.9836 2H13.0164Z" 
    fill="url(#gradient1)"/>

  <!-- Titik di Bagian Atas -->
  <circle cx="12.0984" cy="5.40741" r="1.37766" fill="url(#gradient1)"/>

  <!-- Bagian Bawah -->
  <path fill-rule="evenodd" clip-rule="evenodd" 
    d="M18.9834 30C21.1805 30 22.9616 28.2755 22.9616 26.1482V23.4815L16.0763 23.4815V22.7408H26.0217C28.2188 22.7408 29.9998 21.0162 29.9998 18.8889V13.1111C29.9998 10.9838 28.2188 9.25928 26.0217 9.25928L23.7266 9.25928V12.5185C23.7266 14.6459 21.9455 16.3704 19.7485 16.3704H12.4042C10.5451 16.3704 9.03809 17.8296 9.03809 19.6296V26.1482C9.03809 28.2755 10.8192 30 13.0162 30H18.9834Z" 
    fill="url(#gradient2)"/>

  <!-- Titik di Bagian Bawah -->
  <circle cx="19.9015" cy="26.5926" r="1.37766" fill="url(#gradient2)"/>
</svg>
